<?xml version="1.0" encoding="UTF-8" standalone="no"?>
<svg width="1129px" height="591px" viewBox="0 0 1129 591" version="1.1" xmlns="http://www.w3.org/2000/svg" xmlns:xlink="http://www.w3.org/1999/xlink" xmlns:sketch="http://www.bohemiancoding.com/sketch/ns">
    <!-- Generator: Sketch 3.3 (11970) - http://www.bohemiancoding.com/sketch -->
    <title>couchIcon</title>
    <desc>Created with Sketch.</desc>
    <defs></defs>
    <g id="Page-1" stroke="none" stroke-width="1" fill="none" fill-rule="evenodd" sketch:type="MSPage">
        <g id="couchIcon" sketch:type="MSLayerGroup">
            <path d="M129.41,128.2 C130.74,127.21 132.12,125.97 133.92,126.25 C151.18,126.24 168.44,126.23 185.7,126.2 C189.78,126.17 193.88,126.41 197.93,125.83 C448.27,125.47 698.61,125.51 948.95,125.62 C956.98,125.71 965.01,125.39 973.03,125.84 C981.06,126.86 989.61,126.83 996.83,131.02 C1001.72,133.89 1007.6,136.52 1009.96,142.06 C1013.17,152.41 1013.22,163.37 1013.66,174.1 C1014.48,185.42 1015.56,196.73 1015.87,208.09 C1016.83,216.04 1016.65,224.08 1017.51,232.05 C1044.74,241.76 1072.36,250.28 1099.83,259.23 C1108.3,261.18 1115.62,265.95 1123.3,269.78 C1125.34,270.63 1126.72,272.51 1127.11,274.68 C1128.7,287.39 1128.02,300.21 1128.18,312.99 C1128.14,372.73 1128.53,432.47 1127.53,492.2 C1127.32,495.97 1125.99,500.64 1122.03,502 C1117.05,504.36 1111.42,503.6 1106.1,504.14 C1095.3,504.11 1084.46,504.62 1073.69,503.77 C1073.47,505.49 1073.23,507.22 1072.86,508.93 C1071.78,519.94 1070.28,530.92 1068.9,541.89 C1067.75,552.92 1066.3,563.92 1064.89,574.91 C1064.37,577.97 1064.95,581.49 1062.99,584.13 C1060.38,584.95 1057.61,584.3 1054.96,584.13 C1051.9,583.5 1048.76,583.45 1045.66,583.31 C1044.69,582.7 1043.64,582.21 1042.9,581.36 C1042.27,572.87 1041.45,564.4 1041.15,555.9 C1039.6,538.41 1038.4,520.86 1037.22,503.33 C929.14,503.41 821.05,503.53 712.96,503.79 C691.95,503.69 670.95,504.32 649.94,504.15 C463.37,504.21 276.79,504.88 90.21,505.21 C86.26,532.09 82.57,559.01 78.76,585.9 C78.77,587.91 76.71,588.99 74.95,589.22 C70.27,589.98 65.51,591.35 60.74,590.43 C57.75,562.33 54.17,534.29 51.3,506.18 C44.54,506.6 37.77,506.62 31,506.61 C24.01,506.52 16.88,507.04 10.1,504.97 C7.73,504.26 4.46,503.55 3.96,500.68 C2.22,492.57 0.81,484.32 0.89,476 C0.65,409.97 0.13,343.92 1.61,277.89 C1.76,272.39 5.58,267.08 10.92,265.5 C21.21,262.23 31.6,259.23 41.83,255.75 C42.4,255.61 43.53,255.34 44.1,255.2 C51.7,252.73 59.41,250.53 66.83,247.54 C79.45,242.48 92.47,238.56 105.35,234.24 C106.21,227.03 108.2,220 108.84,212.76 C110.55,198.17 111.95,183.56 113.75,168.99 C114.98,160.13 114.92,151.04 117.51,142.41 C119.16,136.16 124.69,132.15 129.41,128.2 L129.41,128.2 Z" id="Shape" fill="#130504" sketch:type="MSShapeGroup"></path>
            <path d="M145.95,129.78 C416.66,129.24 687.36,129.09 958.07,129.39 C967.12,129.19 976.2,129.65 985.17,131 C991.97,131.94 998.02,135.59 1003.49,139.54 C1006.16,141.38 1007.01,144.65 1007.65,147.64 C1009.97,159.27 1009.55,171.2 1010.63,182.97 C1011.93,198.89 1012.53,214.85 1013.7,230.78 C1004.91,230.74 996.1,230.8 987.34,231.61 C983.46,232.15 979.46,232.95 976.09,235.05 C973.1,237.27 970.84,240.28 968.31,242.96 C967.31,260.58 967.83,278.25 966.88,295.87 C952.97,293.94 939.03,292.14 924.99,291.37 C872.08,287.66 818.95,288.5 765.98,290.6 C754.83,290.88 743.93,293.42 733.02,295.52 C724.77,297.09 716.78,299.83 709.2,303.43 C704.84,299.2 699.89,295.47 693.85,294.08 C679.63,288.29 664.04,288.73 648.98,288.8 C588.64,288.72 528.23,287.18 467.97,290.82 C456.15,291.58 444.03,291.62 432.77,295.76 C428.36,297.48 424.94,300.88 421.3,303.78 C412.52,297.11 401.24,296.08 390.78,294.08 C370.1,290.14 348.95,290.97 328.01,290.58 C300.01,290.48 271.97,289.5 244.01,291.38 C234.65,291.64 225.31,292.28 215.96,292.54 C196.87,293.13 177.9,295.48 158.95,297.66 C158.67,281.1 158.46,264.55 158.46,247.99 C158.82,240.91 153.2,233.87 146.19,232.65 C134.07,229.56 121.4,230.2 109.3,233.05 C110.19,226.02 112.07,219.15 112.71,212.08 C114.17,198 115.66,183.93 117.41,169.89 C118.55,160.95 118.5,151.77 121.21,143.1 C122.63,138.41 126.64,135.24 130.25,132.22 C134.49,128.21 140.73,130.21 145.95,129.78 L145.95,129.78 Z" id="Shape" fill="#690401" sketch:type="MSShapeGroup"></path>
            <path d="M85.61,248.61 C99.47,244.14 113.27,238.36 128.05,238.09 C134.42,238.13 140.84,238.92 146.96,240.73 C146.97,242 145.44,242.02 144.59,242.51 C119.08,251.01 93.68,259.84 68.13,268.25 C66.09,266.29 63.96,264.01 60.95,263.78 C55.02,263.12 49.02,263.61 43.06,263.4 C47.65,261.79 52.31,260.43 56.94,258.96 C66.65,255.93 75.93,251.72 85.61,248.61 L85.61,248.61 Z" id="Shape" fill="#690401" sketch:type="MSShapeGroup"></path>
            <path d="M981.29,240.55 C990.31,238.16 999.73,238.44 1008.98,238.33 C1014.26,238.09 1019.06,240.52 1023.93,242.16 C1045.79,249.9 1067.98,256.68 1090.02,263.89 C1095.07,265.54 1100.23,266.88 1105.1,269.07 C1091.72,269.21 1078.33,268.84 1064.96,269.18 C1055.75,265.8 1047.61,259.9 1038.33,256.58 C1021.98,250.43 1005.51,243.75 988,241.85 C985.74,241.52 983.5,241.05 981.29,240.55 L981.29,240.55 Z" id="Shape" fill="#690401" sketch:type="MSShapeGroup"></path>
            <path d="M975.88,248.46 C983.16,249.54 990.57,249.88 997.73,251.7 C1009.48,254.59 1020.79,258.94 1032.1,263.18 C1041.95,266.86 1051.28,271.72 1060.64,276.47 C1060.55,282.33 1059.37,288.13 1059.57,294 C1059.72,306.96 1059.4,319.92 1059.71,332.87 C1054.59,325.38 1045.79,322.3 1037.84,318.86 C1017.42,310.34 996.64,302.61 975.36,296.54 C975.34,280.51 975.71,264.48 975.88,248.46 L975.88,248.46 Z" id="Shape" fill="#530301" sketch:type="MSShapeGroup"></path>
            <path d="M69.46,276.31 C96.54,266.91 123.69,257.7 150.83,248.46 C150.86,264.99 151.45,281.53 151.43,298.06 C151.76,300.01 149.37,300.32 148.1,300.95 C130.13,306.73 112.26,312.96 95.17,321.02 C86.22,325.15 78.43,331.25 70.24,336.63 C69.49,316.53 69.54,296.42 69.46,276.31 L69.46,276.31 Z" id="Shape" fill="#530301" sketch:type="MSShapeGroup"></path>
            <path d="M10.95,274.01 C14.46,271.62 18.84,271.03 23,270.89 C35.61,270.58 48.22,271.22 60.83,271.16 C62.71,278.62 61.89,286.33 61.93,293.92 C61.93,337.29 60.62,380.64 60.2,424.01 C59.35,448.43 59.49,472.87 58.61,497.3 C46.55,499.58 34.22,499.26 22.01,499.09 C18.31,498.84 14.37,498.9 11,497.14 C9.06,490.28 8.39,483.09 8.42,475.98 C8.16,411.65 7.81,347.32 8.89,283 C9.26,280.02 8.3,276.15 10.95,274.01 L10.95,274.01 Z" id="Shape" fill="#690401" sketch:type="MSShapeGroup"></path>
            <path d="M1067.95,310.01 C1068.11,298.91 1067.69,287.78 1068.82,276.72 C1085.81,276.45 1102.82,276.57 1119.79,277.46 C1121.27,288.24 1120.37,299.16 1120.64,310.01 C1120.69,369.69 1120.78,429.38 1120.29,489.06 C1119.96,491.3 1120.68,494.93 1117.81,495.66 C1113.98,496.8 1109.93,496.48 1106,496.64 C1094.74,496.69 1083.46,497.02 1072.22,496.34 C1070.28,496.01 1066.77,495.87 1067.31,493.06 C1067.33,432.05 1067.55,371.03 1067.95,310.01 L1067.95,310.01 Z" id="Shape" fill="#690401" sketch:type="MSShapeGroup"></path>
            <path d="M450.1,299.63 C476.34,297.43 502.68,296.54 529.01,296.31 C548.98,296.26 568.95,295.45 588.92,296.14 C605.94,296.2 622.96,296.27 639.98,296.38 C651.32,296.51 662.68,296.08 674,296.98 C681.18,297.49 687.99,300 694.72,302.38 C699.53,304.08 702.88,308.13 706.71,311.3 C713.79,317.26 719.78,324.38 725.13,331.89 C726.77,334.12 727.66,336.75 728.43,339.37 C671.28,339.41 614.13,339.34 556.99,338.91 C505.66,338.88 454.33,338.83 403,338.71 C410.75,326.9 419.4,315.51 430.12,306.22 C435.58,301.36 443.19,300.67 450.1,299.63 L450.1,299.63 Z" id="Shape" fill="#690401" sketch:type="MSShapeGroup"></path>
            <path d="M752.02,299.62 C763.88,297.65 775.96,297.67 787.95,297.32 C818.27,296.19 848.62,296.56 878.96,296.66 C898.31,297.29 917.68,298.12 936.97,299.91 C955.28,301.61 973.79,303.75 991.27,309.75 C1009.29,316.02 1027.26,322.6 1044.59,330.62 C1049.43,332.66 1053.35,336.47 1055.4,341.33 C973.27,341.25 891.14,340.35 809,340.29 C785.17,340.39 761.35,339.74 737.51,339.72 C735.9,333.76 734.75,327.31 730.59,322.49 C726.27,317.39 720.92,313.31 716.19,308.62 C727.49,303.49 739.93,301.87 752.02,299.62 L752.02,299.62 Z" id="Shape" fill="#690401" sketch:type="MSShapeGroup"></path>
            <path d="M199.54,300.98 C217.67,299.85 235.84,299.51 253.96,298.34 C281.63,296.99 309.33,298.06 337.01,298.19 C349.72,298.32 362.44,298.37 375.11,299.47 C385.84,300.74 396.54,302.44 407.02,305.09 C410.21,305.83 413.08,307.46 415.86,309.15 C409.59,316.53 403.66,324.19 398.18,332.17 C395.47,335.28 392.71,339.83 388.01,339.48 C333.35,339.3 278.69,339.37 224.03,339.02 C176.27,338.7 128.51,339.04 80.75,338.68 C87.03,334.12 93.62,329.91 100.73,326.73 C119.39,318.25 138.85,311.68 158.39,305.58 C172.03,303.52 185.79,302.12 199.54,300.98 L199.54,300.98 Z" id="Shape" fill="#690401" sketch:type="MSShapeGroup"></path>
            <path d="M399.04,346.32 C509.32,346.45 619.59,346.62 729.87,347.05 C730,360.36 729.93,373.68 730.11,387 C730.12,392.46 730.68,397.98 729.63,403.39 C728.57,403.31 727.51,403.25 726.47,403.2 C723.83,406.93 719.96,410.38 715.04,409.86 C614.37,410.97 513.69,411 413.02,409.98 C410.83,409.88 408.61,409.94 406.48,409.45 C404.54,408.1 404.46,405.48 403.77,403.44 C402,403.61 400.22,403.71 398.45,403.75 C398.49,384.61 398.63,365.46 399.04,346.32 L399.04,346.32 Z" id="Shape" fill="#690401" sketch:type="MSShapeGroup"></path>
            <path d="M71.64,347.25 C177.92,346.89 284.19,346.64 390.47,347.03 C390.5,365.38 390.09,383.74 389.96,402.09 C386.34,405.29 382.21,408.69 377.08,408.52 C326.73,408.85 276.37,408.61 226.02,409.17 C176.7,408.91 127.36,408.73 78.03,408.56 C77.27,406.49 76.98,404.19 78.61,402.41 C77.41,402.88 76.14,403.14 74.87,403.36 C73.67,403.11 72.46,402.87 71.26,402.65 C70.73,384.19 71.03,365.71 71.64,347.25 L71.64,347.25 Z" id="Shape" fill="#690401" sketch:type="MSShapeGroup"></path>
            <path d="M739.21,348.79 C749.07,347.38 759.05,348.08 768.96,347.92 C821.98,348.19 875.01,348.31 928.03,348.59 C960.34,348.81 992.67,348.44 1024.98,349.2 C1035.4,349.26 1045.84,349.15 1056.27,349.4 C1056.47,367 1056.77,384.62 1056.22,402.23 C1054.73,402.73 1053.25,403.25 1051.79,403.78 C1051.81,402.38 1051.91,400.99 1052.04,399.61 C1047.79,400.78 1047.42,405.95 1043.6,407.65 C1041.08,409.37 1037.96,409.51 1035.03,409.47 C940.33,409.93 845.62,410.05 750.92,409.44 C746.21,410.08 743.15,406.01 739.48,403.89 C738.87,385.53 739.35,367.15 739.21,348.79 L739.21,348.79 Z" id="Shape" fill="#690401" sketch:type="MSShapeGroup"></path>
            <path d="M80.04,420.76 C305.35,420.33 530.66,420.16 755.98,420.02 C856.68,420.04 957.39,419.63 1058.1,419.63 C1059.17,422.66 1059.91,425.83 1059.83,429.07 C1059.79,449.41 1059.77,469.76 1059.77,490.1 C1059.75,492.46 1059.33,496.35 1056.05,495.72 C996.38,495.88 936.7,495.94 877.03,496 C728.7,496.52 580.37,496.8 432.04,496.9 C377.36,497.36 322.67,497.26 267.98,497.41 C201.15,497.46 134.31,497.72 67.48,497.62 C65.54,490.86 66.61,483.79 66.64,476.88 C67.35,459.63 66.94,442.34 67.82,425.11 C69.32,419.82 75.76,420.71 80.04,420.76 L80.04,420.76 Z" id="Shape" fill="#690401" sketch:type="MSShapeGroup"></path>
            <path d="M565,0 C512.747625,0 470,41.8932188 470,93.1005938 C470,162.925 565,266 565,266 C565,266 660,162.925 660,93.1005938 C660,41.8932188 617.252375,0 565,0 L565,0 Z M565,126.350594 C546.002375,126.350594 531.07075,111.717625 531.07075,93.1005938 C531.07075,74.482375 546.001781,59.8505938 565,59.8505938 C583.998219,59.8505938 598.92925,74.482375 598.92925,93.1005938 C598.92925,111.717625 583.997625,126.350594 565,126.350594 L565,126.350594 Z" id="Shape" fill="#000000" sketch:type="MSShapeGroup"></path>
        </g>
    </g>
</svg>